<?xml version="1.0"?>
<svg xmlns="http://www.w3.org/2000/svg" id="Layer_5" enable-background="new 0 0 64 64" height="512px" viewBox="0 0 64 64" width="512px" class=""><g transform="matrix(0.585923 0 0 0.585923 13.2505 13.2505)"><circle cx="26" cy="24" r="1" data-original="#000000" class="active-path" data-old_color="#000000" fill="#000000"/><circle cx="38" cy="24" r="1" data-original="#000000" class="active-path" data-old_color="#000000" fill="#000000"/><path d="m32 34c-1.103 0-2-.897-2-2h-2c0 2.206 1.794 4 4 4s4-1.794 4-4h-2c0 1.103-.897 2-2 2z" data-original="#000000" class="active-path" data-old_color="#000000" fill="#000000"/><path d="m49.123 47.288-10.259-4.197c-.365-.149-.682-.368-.952-.631 1.65-.294 3.302-.703 4.93-1.227 3.683-1.185 6.158-4.618 6.158-8.54v-14.693c0-9.374-7.626-17-17-17s-17 7.626-17 17v14.693c0 3.922 2.475 7.355 6.158 8.541 1.628.523 3.28.933 4.93 1.227-.271.263-.588.482-.953.631l-10.259 4.197c-5.999 2.453-9.876 8.229-9.876 14.711v1h54v-1c0-6.482-3.877-12.258-9.877-14.712zm-17.123-7.346c-6.594-2.345-11-8.568-11-15.591v-5.972c1.94 1.696 4.398 2.621 7 2.621h1v-1.846c1.755 1.2 3.827 1.846 6 1.846h1v-1.846c1.755 1.2 3.827 1.846 6 1.846h1v3.351c0 7.023-4.406 13.247-11 15.591zm-3.036.854c.864.45 1.772.837 2.719 1.152l.317.106.316-.105c.947-.316 1.855-.702 2.719-1.152.082.857.371 1.662.842 2.349-.944 1.17-2.349 1.854-3.877 1.854s-2.933-.684-3.878-1.856c.471-.686.76-1.491.842-2.348zm-11.964-8.103v-14.693c0-8.271 6.729-15 15-15s15 6.729 15 15v14.693c0 3.051-1.917 5.718-4.771 6.636-1.72.553-3.468.966-5.209 1.247-.008-.087-.02-.173-.02-.262v-.718c4.921-3.401 8-9.039 8-15.245v-5.351h-3c-2.312 0-4.486-.9-6.121-2.536l-1.879-1.873v4.353c-1.935-.221-3.725-1.082-5.122-2.48l-1.878-1.873v4.353c-1.935-.221-3.725-1.082-5.122-2.48l-.465-.464h-2.413v8.351c0 6.206 3.079 11.845 8 15.245v.718c0 .089-.012.175-.02.262-1.741-.281-3.489-.694-5.209-1.247-2.854-.918-4.771-3.585-4.771-6.636zm8.894 12.249c.279-.114.538-.258.787-.415 1.318 1.561 3.233 2.473 5.319 2.473s4.001-.912 5.32-2.473c.248.157.507.301.787.415l3.48 1.424c-1.301 2.311-3.41 4.105-5.92 4.994l-.667.236v9.404h-6v-9.404l-.666-.235c-2.511-.89-4.619-2.683-5.92-4.994zm-10.259 4.198 4.921-2.013c1.412 2.625 3.694 4.712 6.444 5.862v8.011h-10v-6h-2v6h-7.965c.373-5.255 3.665-9.842 8.6-11.86zm33.365 11.86v-6h-2v6h-10v-8.012c2.75-1.149 5.032-3.237 6.444-5.862l4.921 2.013c4.935 2.019 8.227 6.605 8.6 11.86h-7.965z" data-original="#000000" class="active-path" data-old_color="#000000" fill="#000000"/><path d="m31 57h2v2h-2z" data-original="#000000" class="active-path" data-old_color="#000000" fill="#000000"/><path d="m31 53h2v2h-2z" data-original="#000000" class="active-path" data-old_color="#000000" fill="#000000"/><path d="m31 49h2v2h-2z" data-original="#000000" class="active-path" data-old_color="#000000" fill="#000000"/><path d="m32 7v-2c-3.693 0-7.225 1.58-9.689 4.333l1.49 1.334c2.086-2.331 5.074-3.667 8.199-3.667z" data-original="#000000" class="active-path" data-old_color="#000000" fill="#000000"/><path d="m22.471 12.5-1.73-1.002c-.398.688-.735 1.418-1 2.168l1.885.667c.224-.634.508-1.25.845-1.833z" data-original="#000000" class="active-path" data-old_color="#000000" fill="#000000"/></g> </svg>
